<svg id="组_240" data-name="组 240" xmlns="http://www.w3.org/2000/svg" xmlns:xlink="http://www.w3.org/1999/xlink" width="182.132" height="82.454" viewBox="0 0 182.132 82.454">
  <defs>
    <style>
      .cls-1 {
        fill: #ffeb00;
      }

      .cls-2 {
        fill: #fff;
      }

      .cls-3 {
        clip-path: url(#clip-path);
      }

      .cls-4 {
        fill: #ef7500;
      }

      .cls-5 {
        fill: #ff6200;
      }

      .cls-6 {
        clip-path: url(#clip-path-2);
      }
    </style>
    <clipPath id="clip-path">
      <rect id="矩形_575" data-name="矩形 575" class="cls-1" width="182.132" height="82.454"/>
    </clipPath>
    <clipPath id="clip-path-2">
      <rect id="矩形_778" data-name="矩形 778" class="cls-2" width="120.212" height="39.201"/>
    </clipPath>
  </defs>
  <g id="组_45" data-name="组 45" class="cls-3">
    <path id="路径_8" data-name="路径 8" class="cls-4" d="M692.6,630.04a12.073,12.073,0,1,1-12.073-12.073A12.073,12.073,0,0,1,692.6,630.04" transform="translate(-605.856 -560.093)"/>
    <path id="路径_9" data-name="路径 9" class="cls-2" d="M732.022,693.039c0,1.076-.268,1.606-1.053,1.911a9.829,9.829,0,0,1-3.587.353,7.1,7.1,0,0,0-.785-1.927c1.124.08,2.427.064,2.784.064.375-.016.517-.129.517-.434v-9.958H719.085v2.763l1.035-1c.553.53,1.142,1.124,1.713,1.719a26.4,26.4,0,0,0,.482-2.795l1.892.177a30.272,30.272,0,0,1-.892,4.208c.625.707,1.178,1.4,1.588,1.927l-1.285,1.333c-.25-.385-.607-.851-1.017-1.365a10.62,10.62,0,0,1-2.266,3.437,8.206,8.206,0,0,0-1.249-.8v2.666h-2.124V681.234h15.061Zm-12.937-.964a9.822,9.822,0,0,0,2.195-3.63c-.732-.8-1.481-1.638-2.195-2.345Zm9.386-.289a16.163,16.163,0,0,0-1.017-1.67A11.046,11.046,0,0,1,725.1,693.6a13.488,13.488,0,0,0-1.642-1.012,9.6,9.6,0,0,0,2.712-4.208,28.428,28.428,0,0,0-2.231-2.441l1.285-1.044c.5.466,1.017.98,1.517,1.526a24.428,24.428,0,0,0,.464-2.65l1.874.161a26.418,26.418,0,0,1-.874,4.192,15.753,15.753,0,0,1,1.659,2.457Z" transform="translate(-649.816 -617.435)"/>
    <path id="路径_10" data-name="路径 10" class="cls-5" d="M1032.1,630.04a12.073,12.073,0,1,1-12.073-12.073A12.073,12.073,0,0,1,1032.1,630.04" transform="translate(-913.557 -560.093)"/>
    <path id="路径_11" data-name="路径 11" class="cls-2" d="M1053.459,680.573c-1.945.771-4.068,1.558-5.746,2.168l-.785-1.9c.661-.177,1.481-.434,2.374-.691V675.8h-2.177v-1.815h2.177v-3.469h1.981v3.469h2.052V675.8h-2.052V679.5l1.8-.594Zm10.314,2.313v1.831h-11.742v-1.831h1.892v-9.058h2.07v9.058h1.856v-12.5h2.141v5.236h3.426v1.831h-3.426v5.429Z" transform="translate(-948.881 -607.607)"/>
    <path id="路径_12" data-name="路径 12" class="cls-5" d="M1371.594,630.04a12.073,12.073,0,1,1-12.073-12.073,12.073,12.073,0,0,1,12.073,12.073" transform="translate(-1221.257 -560.093)"/>
    <path id="路径_13" data-name="路径 13" class="cls-2" d="M1397.988,673.311a11.162,11.162,0,0,0,6.674,6.874,7.867,7.867,0,0,0-1.57,1.8,12.5,12.5,0,0,1-6.692-6.81,11.485,11.485,0,0,1-6.674,6.826,5.893,5.893,0,0,0-1.588-1.622,9.9,9.9,0,0,0,6.478-7.067h-6.138v-1.976h6.5a40.184,40.184,0,0,0,.179-4.288h2.32a40.446,40.446,0,0,1-.214,4.288h7.013v1.976Z" transform="translate(-1258.136 -604.577)"/>
    <path id="路径_14" data-name="路径 14" class="cls-5" d="M1711.089,630.04a12.073,12.073,0,1,1-12.073-12.073,12.073,12.073,0,0,1,12.073,12.073" transform="translate(-1528.957 -560.093)"/>
    <path id="路径_15" data-name="路径 15" class="cls-2" d="M1733.529,675.689v1.847h4.247v1.67h-4.247v1.927h6.531v1.7h-15.168v-1.7h6.406v-1.927h-4.069v-1.67h4.069v-1.847h-4.318v-1.076a16.414,16.414,0,0,1-1.713.819,7.472,7.472,0,0,0-1.445-1.59,18.282,18.282,0,0,0,8.226-5.766l1.892.787-.321.434a22.09,22.09,0,0,0,7.441,4.577,5.761,5.761,0,0,0-1.427,1.638c-.589-.273-1.178-.562-1.713-.851v1.028Zm3.248-1.686a23.108,23.108,0,0,1-4.372-3.341,22.721,22.721,0,0,1-4.336,3.341Z" transform="translate(-1562.382 -605.509)"/>
    <path id="路径_16" data-name="路径 16" class="cls-1" d="M75.352,27.387c1.253-7.7,9.381-14.971,9.381-14.971a8.685,8.685,0,0,0-6.669,3.031c-2.69-1.02-3.646.816-3.646.816a2.409,2.409,0,1,1,0,4.818c-3.563.084-3.659-4.7-3.591-6.318a2.178,2.178,0,1,0-.971-.156,5.8,5.8,0,0,1-10.769-3.691,2.5,2.5,0,1,0,1.464-3.152c.011-.012.021-.026.033-.039l0-.014A13.332,13.332,0,0,0,58.45,0a13.334,13.334,0,0,0-2.129,7.712l0,.014c.011.012.021.026.033.039a2.488,2.488,0,1,0,1.464,3.152,5.8,5.8,0,0,1-10.769,3.691,2.214,2.214,0,1,0-.971.156c.068,1.618-.028,6.4-3.591,6.318a2.409,2.409,0,0,1,0-4.818s-.955-1.836-3.646-.816a8.686,8.686,0,0,0-6.669-3.031s8.127,7.27,9.381,14.971a30.739,30.739,0,0,1,33.8,0" transform="translate(-29.154)"/>
    <path id="路径_17" data-name="路径 17" class="cls-1" d="M29.3,254.8a29.162,29.162,0,0,0-19.169,7.155c-.144.128-.35.309-.581.524A9.429,9.429,0,0,0,8.236,263.8a26.1,26.1,0,0,1,17.727-6.857c14.2,0,25.714,11.118,25.714,24.833A24.738,24.738,0,0,1,37.821,303.8a25.007,25.007,0,0,0-8.861-10.081c-4.685-3.2-1.422-8.171-1.422-8.171-5.187-3.055-4.86-11.715,2.506-11.531a4.9,4.9,0,0,0-1.044.462c-2.949,1.607-4.251,4.2-3.2,7.016a5.438,5.438,0,0,0,3.255,3.214c5.228,2.5,11.039,8.357,11.039,8.357s4.493,1.271,6.9-.719a4.218,4.218,0,0,0,1.311-4.707,12.242,12.242,0,0,1-4.811-6.317c-1.22-3.675-3.559-9.075-7.373-11.871a39.9,39.9,0,0,1-1.1-7.592s-3.48,2.363-4,3.858-1.256-3.45-7.362-2.686-6.033-3.544-6.033-3.544-1.131,3.4,1.36,4.779c0,0-10.962-1.174-15.927,10.4,0,0,5.051-3.805,8.255-3.584,0,0-11.652,3.107-10.274,16.812a24.068,24.068,0,0,1-.791-6.129A8.369,8.369,0,0,0,0,284.1a29.3,29.3,0,1,0,29.3-29.3m7.389,19.724a20.977,20.977,0,0,1,5.536,10.389s-2.132-4.9-3.9-6.153c0,0-2.95.337-1.631-4.236" transform="translate(0 -230.941)"/>
    <g id="组_241" data-name="组 241" transform="translate(-1046.482 -340.385)">
      <g id="组_241-2" data-name="组 241" class="cls-6" transform="translate(1108.401 357.444)">
        <path id="路径_24" data-name="路径 24" class="cls-2" d="M10.467,22.436q-.584,5.818-1.126,8.695a53.826,53.826,0,0,1-1.71,6.735H0A43.157,43.157,0,0,0,4.566,26.46q.271-1.168.792-4.024ZM5.838,11.927A34.053,34.053,0,0,1,8.632,16.41a33.326,33.326,0,0,1,1.418,3.42H3.4A46.607,46.607,0,0,0,2.21,15.1q-.334-.98-1.272-3.169ZM6.172.813Q7.3,2.523,7.778,3.44a34.9,34.9,0,0,1,2.252,5.838H3.274A36.313,36.313,0,0,0,1.4.813ZM25.459,33.508q-3.858,4.4-15.326,5.609V35.385a23.687,23.687,0,0,0,7.632-2.648,8.372,8.372,0,0,0,2.648-2.627H10.655V25.668h10.53V24H28v1.668H39.784v4.441H29.63a15.369,15.369,0,0,0,3.19,2.711,26.377,26.377,0,0,0,7.4,2.648V39.2a41.319,41.319,0,0,1-8.987-2.273,23.039,23.039,0,0,1-5.776-3.42m-3.691-16.89H17.932V12.865H22.5V8.278h4.963v4.045a10.081,10.081,0,0,0,1.71-3.753h2.523a22.55,22.55,0,0,1-.563,3.837h-3.67v.459H31.84v3.753H27.461v.6h2.231a20.454,20.454,0,0,1,2.752,4.462V7.569H17.265V24.521h-5.88V3.128h8.737a4.891,4.891,0,0,1,.25-.438A20.716,20.716,0,0,0,21.644,0h5.984a25.454,25.454,0,0,1-.709,3.128h7.214a5.963,5.963,0,0,1,1.877.209,3.374,3.374,0,0,1,2.106,2.106,6.177,6.177,0,0,1,.208,1.9V24.521h-5.88V22.54H28.629a43.876,43.876,0,0,0-1.168-4.316v5.109H22.5V20.789a22.845,22.845,0,0,1-4.9,2.627V20.372a12.1,12.1,0,0,0,4.17-3.753M18.12,8.591h2.294a14.532,14.532,0,0,1,1.751,3.795h-3.44a30.279,30.279,0,0,0-.6-3.795"/>
        <path id="路径_25" data-name="路径 25" class="cls-2" d="M459.427,12.827h6.38V43.561h-6.38ZM466.475,4.9a22.812,22.812,0,0,1,1.835,3.545q.4,1,1.147,3.211h-6.714a25.6,25.6,0,0,0-.646-4.3q-.125-.542-.834-2.46Zm16.639,38.512L481.988,38.7h6.464V10.8H470.624V6.092H490.35a6.291,6.291,0,0,1,2.023.229A3.627,3.627,0,0,1,494.6,8.552a6.291,6.291,0,0,1,.229,2.023V39.391q0,4.024-3.878,4.024Z" transform="translate(-416.44 -4.444)"/>
        <path id="路径_26" data-name="路径 26" class="cls-2" d="M899.324,28.335v9.571h11.552v4.712H899.324V53.794h15.388v4.712h-38.2V53.794H891.88V42.618H880.474V37.905H891.88V28.335H878.744V23.622h33.821v4.712Z" transform="translate(-794.5 -21.412)"/>
      </g>
    </g>
  </g>
</svg>
