<svg xmlns="http://www.w3.org/2000/svg" width="24.6" height="20.495" viewBox="0 0 24.6 20.495">
  <path id="Icon_ionic-ios-share-alt" data-name="Icon ionic-ios-share-alt" d="M28.884,15.358,19.846,6.9a.462.462,0,0,0-.359-.154c-.282.013-.64.211-.64.512V11.5a.274.274,0,0,1-.231.263c-8.986,1.377-12.771,8.1-14.11,15.084-.051.275.32.532.493.314,3.279-4.131,7.27-6.828,13.578-6.879a.317.317,0,0,1,.269.307v4.163a.55.55,0,0,0,.929.339l9.1-8.6a.707.707,0,0,0,.224-.538A.858.858,0,0,0,28.884,15.358Z" transform="translate(-4.502 -6.749)" fill="#2bb84c"/>
</svg>
